<?xml version="1.0" standalone="no"?>
<!DOCTYPE svg PUBLIC "-//W3C//DTD SVG 20010904//EN"
 "http://www.w3.org/TR/2001/REC-SVG-20010904/DTD/svg10.dtd">
<svg version="1.0" xmlns="http://www.w3.org/2000/svg"
 width="1152.000000pt" height="1152.000000pt" viewBox="0 0 1152.000000 1152.000000"
 preserveAspectRatio="xMidYMid meet">
<metadata>
Created by potrace 1.11, written by Peter Selinger 2001-2013
</metadata>
<g transform="translate(0.000000,1152.000000) scale(0.100000,-0.100000)"
fill="#000000" stroke="none">
<path d="M3408 7870 l-3 -1108 -80 75 c-172 160 -352 274 -566 356 -66 26
-228 71 -284 81 -16 2 -30 5 -30 6 0 5 -94 16 -242 28 -129 11 -403 3 -403
-11 0 -5 -5 -5 -10 -2 -6 4 -34 2 -63 -4 -28 -6 -65 -13 -82 -16 -64 -11 -83
-15 -160 -39 -115 -35 -198 -66 -214 -79 -8 -7 -15 -10 -15 -8 -2 11 -226
-110 -226 -121 0 -5 -5 -8 -11 -8 -24 0 -185 -130 -289 -233 -100 -98 -210
-228 -210 -246 0 -5 -4 -11 -9 -13 -15 -5 -105 -157 -155 -263 -27 -55 -55
-112 -63 -127 -8 -16 -11 -28 -7 -28 3 0 2 -6 -3 -12 -6 -7 -18 -40 -28 -73
-10 -33 -23 -66 -28 -73 -5 -7 -7 -15 -4 -18 3 -3 -2 -22 -10 -42 -8 -20 -17
-46 -19 -57 -2 -11 -6 -31 -9 -45 -21 -93 -25 -111 -40 -195 -7 -44 -16 -100
-20 -125 -3 -25 -8 -61 -11 -82 -25 -185 -25 -713 1 -888 2 -14 6 -47 9 -75 4
-27 9 -61 11 -75 3 -14 7 -38 10 -55 2 -16 7 -41 10 -55 3 -14 8 -38 10 -55
17 -95 100 -381 117 -402 6 -7 7 -13 3 -13 -4 0 -3 -6 2 -12 5 -7 18 -35 28
-63 25 -70 126 -278 139 -287 6 -4 7 -8 3 -8 -4 0 6 -20 23 -44 16 -25 30 -47
30 -50 0 -2 22 -37 49 -78 109 -166 253 -325 381 -423 36 -27 67 -53 68 -57 2
-4 8 -8 12 -8 5 0 26 -12 47 -26 40 -28 223 -120 283 -142 42 -16 185 -59 220
-66 14 -3 36 -7 50 -10 61 -13 78 -16 125 -22 28 -3 68 -7 91 -8 23 -2 45 -5
50 -7 23 -12 359 1 449 16 76 13 102 17 125 22 14 3 32 7 40 8 8 1 22 5 30 8
47 17 207 68 218 69 6 1 12 5 12 10 0 4 7 8 15 8 17 0 179 81 183 92 2 4 8 8
14 8 10 0 152 105 187 138 147 139 217 211 306 317 27 33 55 65 61 72 9 9 12
-73 13 -324 1 -184 3 -338 5 -342 3 -4 1045 -5 1221 -1 6 1 45 -1 88 -2 44 -2
81 0 84 5 2 4 10 4 16 0 16 -9 86 -10 115 -1 13 5 21 5 19 0 -5 -7 111 -7 119
0 2 2 5 566 7 1254 1 687 6 1263 11 1279 5 17 9 37 10 45 1 9 5 21 10 28 4 6
5 12 2 12 -9 0 45 144 83 220 46 92 93 164 165 255 59 73 166 175 166 157 0
-4 4 -2 8 4 21 32 161 86 259 100 53 8 116 11 126 6 5 -3 31 -6 57 -7 105 -6
203 -57 303 -157 42 -42 77 -83 77 -92 0 -8 3 -16 8 -18 15 -6 59 -122 68
-178 14 -86 17 -321 18 -1522 0 -764 3 -1388 6 -1389 33 -7 1773 -2 1777 5 4
5 7 590 8 1300 1 710 5 1302 8 1315 4 13 7 41 9 62 1 22 6 39 11 39 4 0 6 4 2
9 -3 6 -1 29 5 53 6 24 12 51 15 61 20 86 68 186 126 263 38 50 112 124 124
124 4 0 21 11 39 25 102 77 334 121 461 87 28 -7 60 -15 73 -18 31 -6 122 -56
122 -66 0 -4 6 -8 13 -8 16 0 116 -104 153 -160 32 -49 70 -137 79 -185 3 -16
8 -40 10 -51 3 -12 7 -42 8 -68 2 -25 6 -48 8 -50 2 -3 4 -619 3 -1370 0 -751
2 -1366 5 -1367 3 -1 405 -2 894 -3 l887 -1 -4 1600 c-2 880 -6 1620 -9 1645
-4 25 -9 65 -11 90 -9 79 -53 318 -61 330 -2 4 -7 22 -10 40 -3 19 -10 39 -15
45 -5 6 -10 22 -13 35 -2 14 -10 41 -19 61 -9 20 -19 47 -23 60 -4 13 -26 60
-48 104 -126 247 -336 455 -583 578 -113 57 -297 117 -401 131 -17 2 -35 6
-40 9 -45 28 -589 30 -730 2 -11 -2 -36 -6 -54 -9 -19 -3 -45 -8 -59 -11 -14
-4 -34 -8 -45 -10 -122 -22 -346 -111 -443 -176 -24 -16 -45 -29 -48 -29 -4 0
-44 -27 -83 -57 -9 -6 -52 -40 -95 -75 -43 -35 -91 -72 -105 -83 -14 -11 -90
-84 -169 -162 l-143 -142 -24 39 c-14 22 -25 42 -25 45 0 7 -85 129 -128 185
-20 25 -72 81 -116 125 -101 100 -177 157 -296 222 -40 22 -185 81 -215 88
-11 2 -45 11 -75 19 -30 8 -73 17 -95 20 -22 3 -51 8 -64 10 -132 28 -603 29
-741 1 -13 -2 -42 -7 -63 -10 -22 -4 -80 -17 -131 -31 -50 -13 -102 -26 -116
-30 -14 -3 -38 -12 -54 -20 -16 -8 -33 -14 -39 -14 -20 0 -216 -104 -295 -157
-152 -101 -313 -245 -474 -423 l-58 -64 0 1221 0 1220 -900 0 -900 1 -2 -1108z
m-690 -1895 c98 -11 268 -76 319 -120 6 -5 25 -20 41 -33 194 -148 306 -394
338 -742 7 -68 6 -306 -1 -380 -12 -143 -19 -191 -30 -230 -2 -8 -7 -31 -10
-50 -9 -54 -40 -149 -70 -215 -92 -201 -270 -360 -465 -416 -65 -18 -67 -18
-155 -24 -44 -4 -86 -8 -92 -10 -7 -3 -13 -1 -13 3 0 4 -17 8 -37 9 -71 2
-186 39 -245 78 -21 14 -40 25 -43 25 -7 0 -59 46 -118 103 -46 46 -120 153
-143 207 -6 14 -18 42 -27 62 -27 61 -61 203 -72 293 -2 17 -6 55 -10 85 -10
75 -10 397 0 495 11 115 13 130 15 130 1 0 4 18 6 40 3 22 12 63 20 90 8 28
14 52 14 55 0 17 39 116 71 180 42 82 128 187 199 240 48 37 192 112 207 108
4 -1 18 1 30 6 57 19 169 24 271 11z"/>
</g>
</svg>
